# xmcd CD database file
#
# Track frame offsets:
#	150
#	13935
#	19868
#	33474
#	37213
#	56673
#	71354
#	82895
#	96563
#	110787
#	120707
#	132497
#
# Disc length: 1903 seconds
#
# Revision: 0
# Processed by: cddbd v1.5.1PL2 Copyright (c) Steve Scherf et al.
# Submitted via: CDex 1.51
#
DISCID=ad076d0c
DTITLE=Leadbelly - The Bourgeois Blues
DYEAR=2005
DGENRE=Blues
TTITLE0=The Bourgeois Blues
TTITLE1=Big Fat Woman
TTITLE2=The Gallis Pole
TTITLE3=Bring Me Lil' Water Silvy
TTITLE4=John Hardy
TTITLE5=In New Orleans
TTITLE6=Goodnight Irene
TTITLE7=Where Did You Sleep Last Night
TTITLE8=Yellow Gal
TTITLE9=On a Monday
TTITLE10=Boll Weevil
TTITLE11=Blue Tail Fly
EXTD=YEAR: 2005
EXTT0=
EXTT1=
EXTT2=
EXTT3=
EXTT4=
EXTT5=
EXTT6=
EXTT7=
EXTT8=
EXTT9=
EXTT10=
EXTT11=
PLAYORDER=
